{"accessors" : [{"bufferView" : 0, "byteOffset" : 0, "componentType" : 5123, "count" : 4368, "type" : "SCALAR", "max" : [727], "min" : [0]}, {"bufferView" : 1, "byteOffset" : 0, "componentType" : 5126, "count" : 728, "type" : "VEC3", "max" : [75.27539825439453, 90.24700164794922, 61.023799896240234], "min" : [-75.27539825439453, 0.7800650000572205, -39.14030075073242], "name" : "POSITION"}, {"bufferView" : 0, "byteOffset" : 8736, "componentType" : 5123, "count" : 4890, "type" : "SCALAR", "max" : [816], "min" : [0]}, {"bufferView" : 3, "byteOffset" : 0, "componentType" : 5126, "count" : 817, "type" : "VEC3", "max" : [2.1323699951171875, -0.33745700120925903, 1.359779953956604], "min" : [-2.1323699951171875, -0.9908159971237183, -0.8766480088233948], "name" : "POSITION"}, {"bufferView" : 0, "byteOffset" : 18516, "componentType" : 5123, "count" : 6612, "type" : "SCALAR", "max" : [1082], "min" : [0]}, {"bufferView" : 4, "byteOffset" : 0, "componentType" : 5126, "count" : 1083, "type" : "VEC3", "max" : [2.129309892654419, 1.8645100593566895, 1.4693700075149536], "min" : [-2.129309892654419, -0.625931978225708, -0.8813909888267517], "name" : "POSITION"}, {"bufferView" : 0, "byteOffset" : 31740, "componentType" : 5123, "count" : 246, "type" : "SCALAR", "max" : [42], "min" : [0]}, {"bufferView" : 5, "byteOffset" : 0, "componentType" : 5126, "count" : 43, "type" : "VEC3", "max" : [2.1135499477386475, -0.5149639844894409, 0.35496801137924194], "min" : [2.032170057296753, -0.5534110069274902, 0.1433439999818802], "name" : "POSITION"}, {"bufferView" : 0, "byteOffset" : 32232, "componentType" : 5123, "count" : 1242, "type" : "SCALAR", "max" : [208], "min" : [0]}, {"bufferView" : 6, "byteOffset" : 0, "componentType" : 5126, "count" : 209, "type" : "VEC3", "max" : [1.6102800369262695, 1.871500015258789, 1.3083699941635132], "min" : [-1.6102800369262695, -0.6379600167274475, -0.8081880211830139], "name" : "POSITION"}, {"bufferView" : 0, "byteOffset" : 34716, "componentType" : 5123, "count" : 7290, "type" : "SCALAR", "max" : [1214], "min" : [0]}, {"bufferView" : 7, "byteOffset" : 0, "componentType" : 5126, "count" : 1215, "type" : "VEC3", "max" : [2.2704598903656006, 5.939209938049316, 2.8914599418640137], "min" : [-2.272670030593872, -0.11910700052976608, -0.9074079990386963], "name" : "POSITION"}, {"bufferView" : 0, "byteOffset" : 49296, "componentType" : 5123, "count" : 5376, "type" : "SCALAR", "max" : [819], "min" : [0]}, {"bufferView" : 9, "byteOffset" : 0, "componentType" : 5126, "count" : 820, "type" : "VEC3", "max" : [1.9775700569152832, 2.200809955596924, 1.5330400466918945], "min" : [-1.979200005531311, -0.5954629778862, -0.9442179799079895], "name" : "POSITION"}, {"bufferView" : 0, "byteOffset" : 60048, "componentType" : 5123, "count" : 138, "type" : "SCALAR", "max" : [24], "min" : [0]}, {"bufferView" : 10, "byteOffset" : 0, "componentType" : 5126, "count" : 25, "type" : "VEC3", "max" : [-1.6857199668884277, -0.5041109919548035, 1.0390000343322754], "min" : [-1.8630800247192383, -0.6963819861412048, 0.8303390145301819], "name" : "POSITION"}, {"bufferView" : 0, "byteOffset" : 60324, "componentType" : 5123, "count" : 138, "type" : "SCALAR", "max" : [24], "min" : [0]}, {"bufferView" : 11, "byteOffset" : 0, "componentType" : 5126, "count" : 25, "type" : "VEC3", "max" : [1.4606599807739258, -0.6561390161514282, -0.6109430193901062], "min" : [1.26242995262146, -0.7813379764556885, -0.7868180274963379], "name" : "POSITION"}, {"bufferView" : 0, "byteOffset" : 60600, "componentType" : 5123, "count" : 138, "type" : "SCALAR", "max" : [24], "min" : [0]}, {"bufferView" : 12, "byteOffset" : 0, "componentType" : 5126, "count" : 25, "type" : "VEC3", "max" : [-1.2639199495315552, -0.6561390161514282, -0.6109430193901062], "min" : [-1.462149977684021, -0.7813379764556885, -0.7868180274963379], "name" : "POSITION"}, {"bufferView" : 0, "byteOffset" : 60876, "componentType" : 5123, "count" : 138, "type" : "SCALAR", "max" : [24], "min" : [0]}, {"bufferView" : 13, "byteOffset" : 0, "componentType" : 5126, "count" : 25, "type" : "VEC3", "max" : [1.8630800247192383, -0.5041109919548035, 1.0390000343322754], "min" : [1.6842299699783325, -0.6963819861412048, 0.8303390145301819], "name" : "POSITION"}, {"bufferView" : 0, "byteOffset" : 61152, "componentType" : 5123, "count" : 1218, "type" : "SCALAR", "max" : [204], "min" : [0]}, {"bufferView" : 14, "byteOffset" : 0, "componentType" : 5126, "count" : 205, "type" : "VEC3", "max" : [1.4899499416351318, 0.14948900043964386, 0.9696249961853027], "min" : [-1.4911400079727173, -0.14277499914169312, -0.5978649854660034], "name" : "POSITION"}, {"bufferView" : 0, "byteOffset" : 63588, "componentType" : 5123, "count" : 1284, "type" : "SCALAR", "max" : [215], "min" : [0]}, {"bufferView" : 15, "byteOffset" : 0, "componentType" : 5126, "count" : 216, "type" : "VEC3", "max" : [-0.27671998739242554, 0.1501690000295639, 0.5922060012817383], "min" : [-1.1303900480270386, -0.16814999282360077, -0.20268499851226807], "name" : "POSITION"}, {"bufferView" : 0, "byteOffset" : 66156, "componentType" : 5123, "count" : 1104, "type" : "SCALAR", "max" : [185], "min" : [0]}, {"bufferView" : 17, "byteOffset" : 0, "componentType" : 5126, "count" : 186, "type" : "VEC3", "max" : [1.1303900480270386, 0.1501690000295639, 0.5922060012817383], "min" : [0.2758159935474396, -0.16814999282360077, -0.20268499851226807], "name" : "POSITION"}, {"bufferView" : 0, "byteOffset" : 68364, "componentType" : 5123, "count" : 1416, "type" : "SCALAR", "max" : [237], "min" : [0]}, {"bufferView" : 18, "byteOffset" : 0, "componentType" : 5126, "count" : 238, "type" : "VEC3", "max" : [-0.19781799614429474, 0.19528500735759735, 0.663329005241394], "min" : [-1.2062100172042847, 0.14993099868297577, -0.2755829989910126], "name" : "POSITION"}, {"bufferView" : 0, "byteOffset" : 71196, "componentType" : 5123, "count" : 1428, "type" : "SCALAR", "max" : [239], "min" : [0]}, {"bufferView" : 19, "byteOffset" : 0, "componentType" : 5126, "count" : 240, "type" : "VEC3", "max" : [1.2062100172042847, 0.19528500735759735, 0.663329005241394], "min" : [0.19685299694538116, 0.14993099868297577, -0.2755829989910126], "name" : "POSITION"}, {"bufferView" : 0, "byteOffset" : 74052, "componentType" : 5123, "count" : 156, "type" : "SCALAR", "max" : [27], "min" : [0]}, {"bufferView" : 20, "byteOffset" : 0, "componentType" : 5126, "count" : 28, "type" : "VEC3", "max" : [1.0251400470733643, -0.2371709942817688, -0.8253480195999146], "min" : [0.482464998960495, -0.3339270055294037, -0.8901320099830627], "name" : "POSITION"}, {"bufferView" : 0, "byteOffset" : 74364, "componentType" : 5123, "count" : 468, "type" : "SCALAR", "max" : [79], "min" : [0]}, {"bufferView" : 21, "byteOffset" : 0, "componentType" : 5126, "count" : 80, "type" : "VEC3", "max" : [-0.49855101108551025, -0.20015199482440948, -0.8312370181083679], "min" : [-1.0782400369644165, -0.3734700083732605, -0.9044349789619446], "name" : "POSITION"}, {"bufferView" : 0, "byteOffset" : 75300, "componentType" : 5123, "count" : 576, "type" : "SCALAR", "max" : [97], "min" : [0]}, {"bufferView" : 22, "byteOffset" : 0, "componentType" : 5126, "count" : 98, "type" : "VEC3", "max" : [1.143970012664795, 0.22835800051689148, 0.6055930256843567], "min" : [0.25370800495147705, 0.09921400249004364, -0.21689599752426147], "name" : "POSITION"}, {"bufferView" : 0, "byteOffset" : 76452, "componentType" : 5123, "count" : 576, "type" : "SCALAR", "max" : [97], "min" : [0]}, {"bufferView" : 23, "byteOffset" : 0, "componentType" : 5126, "count" : 98, "type" : "VEC3", "max" : [-0.2546229958534241, 0.22835800051689148, 0.6055930256843567], "min" : [-1.1448899507522583, 0.09921400249004364, -0.21689599752426147], "name" : "POSITION"}], "asset" : {"generator" : "Aspose.3D 24.2.0", "version" : "2.0"}, "buffers" : [{"uri" : "buffer.bin", "byteLength" : 1853060}], "bufferViews" : [{"buffer" : 0, "byteOffset" : 0, "byteLength" : 77604, "target" : 34963}, {"buffer" : 0, "byteOffset" : 77608, "byteLength" : 8736, "byteStride" : 12, "target" : 34962}, {"buffer" : 0, "byteOffset" : 86348, "byteLength" : 978085}, {"buffer" : 0, "byteOffset" : 1064436, "byteLength" : 9804, "byteStride" : 12, "target" : 34962}, {"buffer" : 0, "byteOffset" : 1074244, "byteLength" : 12996, "byteStride" : 12, "target" : 34962}, {"buffer" : 0, "byteOffset" : 1087244, "byteLength" : 516, "byteStride" : 12, "target" : 34962}, {"buffer" : 0, "byteOffset" : 1087764, "byteLength" : 2508, "byteStride" : 12, "target" : 34962}, {"buffer" : 0, "byteOffset" : 1090276, "byteLength" : 14580, "byteStride" : 12, "target" : 34962}, {"buffer" : 0, "byteOffset" : 1104860, "byteLength" : 21260}, {"buffer" : 0, "byteOffset" : 1126124, "byteLength" : 9840, "byteStride" : 12, "target" : 34962}, {"buffer" : 0, "byteOffset" : 1135968, "byteLength" : 300, "byteStride" : 12, "target" : 34962}, {"buffer" : 0, "byteOffset" : 1136272, "byteLength" : 300, "byteStride" : 12, "target" : 34962}, {"buffer" : 0, "byteOffset" : 1136576, "byteLength" : 300, "byteStride" : 12, "target" : 34962}, {"buffer" : 0, "byteOffset" : 1136880, "byteLength" : 300, "byteStride" : 12, "target" : 34962}, {"buffer" : 0, "byteOffset" : 1137184, "byteLength" : 2460, "byteStride" : 12, "target" : 34962}, {"buffer" : 0, "byteOffset" : 1139648, "byteLength" : 2592, "byteStride" : 12, "target" : 34962}, {"buffer" : 0, "byteOffset" : 1142244, "byteLength" : 699171}, {"buffer" : 0, "byteOffset" : 1841416, "byteLength" : 2232, "byteStride" : 12, "target" : 34962}, {"buffer" : 0, "byteOffset" : 1843652, "byteLength" : 2856, "byteStride" : 12, "target" : 34962}, {"buffer" : 0, "byteOffset" : 1846512, "byteLength" : 2880, "byteStride" : 12, "target" : 34962}, {"buffer" : 0, "byteOffset" : 1849396, "byteLength" : 336, "byteStride" : 12, "target" : 34962}, {"buffer" : 0, "byteOffset" : 1849736, "byteLength" : 960, "byteStride" : 12, "target" : 34962}, {"buffer" : 0, "byteOffset" : 1850700, "byteLength" : 1176, "byteStride" : 12, "target" : 34962}, {"buffer" : 0, "byteOffset" : 1851880, "byteLength" : 1176, "byteStride" : 12, "target" : 34962}], "images" : [{"mimeType" : "image/png", "bufferView" : 2}, {"mimeType" : "image/png", "bufferView" : 8}, {"mimeType" : "image/png", "bufferView" : 16}], "materials" : [{"name" : "", "pbrMetallicRoughness" : {"baseColorFactor" : [1, 1, 1, 1], "baseColorTexture" : {"index" : 0, "texCoord" : 0}, "metallicFactor" : 1, "roughnessFactor" : 1}, "emissiveFactor" : [0, 0, 0], "alphaMode" : "OPAQUE", "doubleSided" : false}, {"name" : "", "pbrMetallicRoughness" : {"baseColorFactor" : [1, 1, 1, 1], "baseColorTexture" : {"index" : 1, "texCoord" : 0}, "metallicFactor" : 1, "roughnessFactor" : 1}, "emissiveFactor" : [0, 0, 0], "alphaMode" : "OPAQUE", "doubleSided" : false}, {"name" : "", "pbrMetallicRoughness" : {"baseColorFactor" : [1, 1, 1, 1], "baseColorTexture" : {"index" : 2, "texCoord" : 0}, "metallicFactor" : 1, "roughnessFactor" : 1}, "emissiveFactor" : [0, 0, 0], "alphaMode" : "OPAQUE", "doubleSided" : false}, {"name" : "", "pbrMetallicRoughness" : {"baseColorFactor" : [1, 1, 1, 1], "baseColorTexture" : {"index" : 2, "texCoord" : 0}, "metallicFactor" : 1, "roughnessFactor" : 1}, "emissiveFactor" : [0, 0, 0], "alphaMode" : "OPAQUE", "doubleSided" : false}], "meshes" : [{"primitives" : [{"attributes" : {"POSITION" : 1}, "indices" : 0, "material" : 0, "mode" : 4}], "name" : ""}, {"primitives" : [{"attributes" : {"POSITION" : 3}, "indices" : 2, "mode" : 4}], "name" : ""}, {"primitives" : [{"attributes" : {"POSITION" : 5}, "indices" : 4, "mode" : 4}], "name" : ""}, {"primitives" : [{"attributes" : {"POSITION" : 7}, "indices" : 6, "mode" : 4}], "name" : ""}, {"primitives" : [{"attributes" : {"POSITION" : 9}, "indices" : 8, "mode" : 4}], "name" : ""}, {"primitives" : [{"attributes" : {"POSITION" : 11}, "indices" : 10, "material" : 1, "mode" : 4}], "name" : ""}, {"primitives" : [{"attributes" : {"POSITION" : 13}, "indices" : 12, "mode" : 4}], "name" : ""}, {"primitives" : [{"attributes" : {"POSITION" : 15}, "indices" : 14, "mode" : 4}], "name" : ""}, {"primitives" : [{"attributes" : {"POSITION" : 17}, "indices" : 16, "mode" : 4}], "name" : ""}, {"primitives" : [{"attributes" : {"POSITION" : 19}, "indices" : 18, "mode" : 4}], "name" : ""}, {"primitives" : [{"attributes" : {"POSITION" : 21}, "indices" : 20, "mode" : 4}], "name" : ""}, {"primitives" : [{"attributes" : {"POSITION" : 23}, "indices" : 22, "mode" : 4}], "name" : ""}, {"primitives" : [{"attributes" : {"POSITION" : 25}, "indices" : 24, "material" : 2, "mode" : 4}], "name" : ""}, {"primitives" : [{"attributes" : {"POSITION" : 27}, "indices" : 26, "material" : 3, "mode" : 4}], "name" : ""}, {"primitives" : [{"attributes" : {"POSITION" : 29}, "indices" : 28, "mode" : 4}], "name" : ""}, {"primitives" : [{"attributes" : {"POSITION" : 31}, "indices" : 30, "mode" : 4}], "name" : ""}, {"primitives" : [{"attributes" : {"POSITION" : 33}, "indices" : 32, "mode" : 4}], "name" : ""}, {"primitives" : [{"attributes" : {"POSITION" : 35}, "indices" : 34, "mode" : 4}], "name" : ""}, {"primitives" : [{"attributes" : {"POSITION" : 37}, "indices" : 36, "mode" : 4}], "name" : ""}, {"primitives" : [{"attributes" : {"POSITION" : 39}, "indices" : 38, "mode" : 4}], "name" : ""}], "nodes" : [{"mesh" : 0}, {"children" : [0]}, {"mesh" : 1}, {"children" : [2]}, {"mesh" : 2}, {"children" : [4]}, {"mesh" : 3}, {"children" : [6]}, {"mesh" : 4}, {"children" : [8]}, {"mesh" : 5}, {"children" : [10]}, {"mesh" : 6}, {"children" : [12]}, {"mesh" : 7}, {"children" : [14], "matrix" : [1.55, 0, 0, 0, 0, 1.55, 0, 0, 0, 0, 1.55, 0, 0, -3.83689, 1.54096, 1]}, {"mesh" : 8}, {"children" : [16], "matrix" : [1.55, 0, 0, 0, 0, 1.55, 0, 0, 0, 0, 1.55, 0, 0, -3.83689, 1.54096, 1]}, {"mesh" : 9}, {"children" : [18], "matrix" : [1.55, 0, 0, 0, 0, 1.55, 0, 0, 0, 0, 1.55, 0, 0, -3.83689, 1.54096, 1]}, {"mesh" : 10}, {"children" : [20], "matrix" : [1.55, 0, 0, 0, 0, 1.55, 0, 0, 0, 0, 1.55, 0, 0, -3.83689, 1.54096, 1]}, {"children" : [15, 17, 19, 21]}, {"mesh" : 11}, {"children" : [23]}, {"mesh" : 12}, {"children" : [25], "matrix" : [1.55, 0, 0, 0, 0, 1.55, 0, 0, 0, 0, 1.55, 0, 0, -3.83689, 1.54096, 1]}, {"mesh" : 13}, {"children" : [27], "matrix" : [1.55, 0, 0, 0, 0, 1.55, 0, 0, 0, 0, 1.55, 0, 0, -3.83689, 1.54096, 1]}, {"children" : [26, 28]}, {"mesh" : 14}, {"children" : [30], "matrix" : [1.55, 0, 0, 0, 0, 1.55, 0, 0, 0, 0, 1.55, 0, 0, -3.83689, 1.54096, 1]}, {"mesh" : 15}, {"children" : [32], "matrix" : [1.55, 0, 0, 0, 0, 1.55, 0, 0, 0, 0, 1.55, 0, 0, -3.83689, 1.54096, 1]}, {"children" : [31, 33]}, {"mesh" : 16}, {"children" : [35], "matrix" : [1.55, 0, 0, 0, 0, 1.55, 0, 0, 0, 0, 1.55, 0, 0, -3.83689, 1.54096, 1]}, {"mesh" : 17}, {"children" : [37], "matrix" : [1.55, 0, 0, 0, 0, 1.55, 0, 0, 0, 0, 1.55, 0, 0, -3.83689, 1.54096, 1]}, {"children" : [36, 38]}, {"mesh" : 18}, {"children" : [40], "matrix" : [1.55, 0, 0, 0, 0, 1.55, 0, 0, 0, 0, 1.55, 0, 0, -3.83689, 1.54096, 1]}, {"mesh" : 19}, {"children" : [42], "matrix" : [1.55, 0, 0, 0, 0, 1.55, 0, 0, 0, 0, 1.55, 0, 0, -3.83689, 1.54096, 1]}, {"children" : [41, 43]}], "samplers" : [{"magFilter" : 9729, "minFilter" : 9729, "wrapS" : 10497, "wrapT" : 10497}, {"magFilter" : 9729, "minFilter" : 9729, "wrapS" : 10497, "wrapT" : 10497}, {"magFilter" : 9729, "minFilter" : 9729, "wrapS" : 10497, "wrapT" : 10497}], "scene" : 0, "scenes" : [{"nodes" : [1, 3, 5, 7, 9, 11, 13, 22, 24, 29, 34, 39, 44]}], "textures" : [{"sampler" : 0, "source" : 0, "name" : ""}, {"sampler" : 1, "source" : 1, "name" : ""}, {"sampler" : 2, "source" : 2, "name" : ""}]}